<?xml version="1.0" encoding="UTF-8"?>
<svg version="1.1" xmlns="http://www.w3.org/2000/svg" width="50" height="50">
<path d="M0 0 C0.99 0.33 1.98 0.66 3 1 C3.20496094 2.27617187 3.40992187 3.55234375 3.62109375 4.8671875 C3.89305815 6.53648621 4.16520291 8.20575553 4.4375 9.875 C4.57220703 10.71675781 4.70691406 11.55851562 4.84570312 12.42578125 C5.04389648 13.63427734 5.04389648 13.63427734 5.24609375 14.8671875 C5.36654053 15.61081543 5.4869873 16.35444336 5.61108398 17.12060547 C5.93247105 19.07884647 5.93247105 19.07884647 7 21 C7.99 17.7 8.98 14.4 10 11 C11.32 11 12.64 11 14 11 C14.66 12.98 15.32 14.96 16 17 C19.3 17 22.6 17 26 17 C26 17.66 26 18.32 26 19 C24.576875 19.12375 24.576875 19.12375 23.125 19.25 C19.89538209 19.65074923 19.89538209 19.65074923 18.625 22.0625 C18.41875 22.701875 18.2125 23.34125 18 24 C16.68 24 15.36 24 14 24 C13.34 22.35 12.68 20.7 12 19 C10.68 23.29 9.36 27.58 8 32 C6.68 31.67 5.36 31.34 4 31 C3.01 25.06 2.02 19.12 1 13 C0.5875 14.629375 0.175 16.25875 -0.25 17.9375 C-0.953125 20.71484375 -0.953125 20.71484375 -2 23 C-4.109375 23.81640625 -4.109375 23.81640625 -6 24 C-6.66 22.02 -7.32 20.04 -8 18 C-8.33 18.33 -8.66 18.66 -9 19 C-10.51928038 19.07179964 -12.04167482 19.08392007 -13.5625 19.0625 C-14.38878906 19.05347656 -15.21507812 19.04445313 -16.06640625 19.03515625 C-17.02353516 19.01775391 -17.02353516 19.01775391 -18 19 C-18 18.34 -18 17.68 -18 17 C-16.02 17 -14.04 17 -12 17 C-11.34 15.02 -10.68 13.04 -10 11 C-8.68 11 -7.36 11 -6 11 C-5.01 12.485 -5.01 12.485 -4 14 C-3.79503906 13.07316406 -3.59007812 12.14632813 -3.37890625 11.19140625 C-3.10949219 9.99386719 -2.84007812 8.79632813 -2.5625 7.5625 C-2.29566406 6.36753906 -2.02882813 5.17257812 -1.75390625 3.94140625 C-1 1 -1 1 0 0 Z " fill="#59E9FA" transform="translate(21,9)"/>
</svg>
