<?xml version="1.0" encoding="UTF-8"?>
<svg version="1.1" xmlns="http://www.w3.org/2000/svg" width="50" height="50">
<path d="M0 0 C3.16031676 0.31173193 4.60204879 0.55802764 6.765625 2.9609375 C7.25546875 3.75757813 7.7453125 4.55421875 8.25 5.375 C8.75015625 6.16648437 9.2503125 6.95796875 9.765625 7.7734375 C13.06981717 13.73353097 12.64227597 20.3796169 12 27 C10.38375627 31.85497151 8.1256149 36.79118841 4 40 C2.68 40 1.36 40 0 40 C1.52012833 36.54516288 3.62614635 33.68504536 5.87890625 30.68359375 C9.12990065 25.8014384 8.51856982 19.60481624 8 14 C6.43682216 8.97029307 3.8430587 5.5685545 0 2 C0 1.34 0 0.68 0 0 Z " fill="#5AE9F9" transform="translate(38,5)"/>
<path d="M0 0 C-1.10175536 2.47894956 -2.266293 4.3245446 -4 6.4375 C-8.67235724 12.42395771 -8.78076098 18.65894251 -8 26 C-6.42352463 31.03009409 -3.84797512 34.42688025 0 38 C0 38.66 0 39.32 0 40 C-3.16031676 39.68826807 -4.60204879 39.44197236 -6.765625 37.0390625 C-7.25546875 36.24242187 -7.7453125 35.44578125 -8.25 34.625 C-8.75015625 33.83351562 -9.2503125 33.04203125 -9.765625 32.2265625 C-13.06981717 26.26646903 -12.64227597 19.6203831 -12 13 C-9.87533792 6.61781044 -7.3084298 0 0 0 Z " fill="#5BE8F9" transform="translate(12,5)"/>
<path d="M0 0 C3.53508103 0.29459009 4.76203444 0.74881413 7.25 3.375 C10.87691995 8.81537993 10.61402323 14.66328031 10 21 C8.68920235 24.6155651 6.72657221 27.27342779 4 30 C2.68 30 1.36 30 0 30 C1.16941301 27.46627181 2.35083166 25.56661971 4.125 23.375 C6.64830747 18.83304655 6.84623461 15.0940005 6 10 C4.25651307 6.6330885 4.25651307 6.6330885 2 4 C1.30570621 2.6808418 0.62469505 1.35350594 0 0 Z " fill="#5CE8FA" transform="translate(33,10)"/>
<path d="M0 0 C1.32 0 2.64 0 4 0 C2.83058699 2.53372819 1.64916834 4.43338029 -0.125 6.625 C-2.64830747 11.16695345 -2.84623461 14.9059995 -2 20 C-0.25651307 23.3669115 -0.25651307 23.3669115 2 26 C2.69429379 27.3191582 3.37530495 28.64649406 4 30 C0.46491897 29.70540991 -0.76203444 29.25118587 -3.25 26.625 C-6.87691995 21.18462007 -6.61402323 15.33671969 -6 9 C-4.68920235 5.3844349 -2.72657221 2.72657221 0 0 Z " fill="#5BE7FA" transform="translate(13,10)"/>
<path d="M0 0 C2.63932462 0.36404477 3.77318495 0.75501773 5.609375 2.73828125 C7.991866 6.61317531 7.6540254 10.59954646 7 15 C5.1875 18.125 5.1875 18.125 3 20 C2.01 20 1.02 20 0 20 C0.57344937 17.13275314 0.8614515 16.1385485 3 14 C3.66436983 8.68949769 3.66436983 8.68949769 1.5 4.1875 C1.005 3.795625 0.51 3.40375 0 3 C0 2.01 0 1.02 0 0 Z " fill="#5BE7FA" transform="translate(29,15)"/>
<path d="M0 0 C-0.57344937 2.86724686 -0.8614515 3.8614515 -3 6 C-3.66436983 11.31050231 -3.66436983 11.31050231 -1.5 15.8125 C-1.005 16.204375 -0.51 16.59625 0 17 C0 17.99 0 18.98 0 20 C-2.63932462 19.63595523 -3.77318495 19.24498227 -5.609375 17.26171875 C-7.991866 13.38682469 -7.6540254 9.40045354 -7 5 C-4.1 0 -4.1 0 0 0 Z " fill="#5BE7FA" transform="translate(21,15)"/>
<path d="M0 0 C3 0.125 3 0.125 4 1.125 C4.125 4.125 4.125 4.125 4 7.125 C3 8.125 3 8.125 0 8.25 C-3 8.125 -3 8.125 -4 7.125 C-4.125 4.125 -4.125 4.125 -4 1.125 C-3 0.125 -3 0.125 0 0 Z M-1 3.125 C-1 3.785 -1 4.445 -1 5.125 C-0.34 5.125 0.32 5.125 1 5.125 C1 4.465 1 3.805 1 3.125 C0.34 3.125 -0.32 3.125 -1 3.125 Z " fill="#5BE9F8" transform="translate(25,20.875)"/>
</svg>
