<?xml version="1.0" encoding="UTF-8"?>
<svg version="1.1" xmlns="http://www.w3.org/2000/svg" width="64" height="64">
<path d="M0 0 C1.32 0 2.64 0 4 0 C4 1.98 4 3.96 4 6 C13.24 6 22.48 6 32 6 C32 4.02 32 2.04 32 0 C33.32 0 34.64 0 36 0 C36 1.98 36 3.96 36 6 C38.64 6 41.28 6 44 6 C44 8.64 44 11.28 44 14 C46.64 14 49.28 14 52 14 C52 29.18 52 44.36 52 60 C34.84 60 17.68 60 0 60 C0 57.36 0 54.72 0 52 C-2.64 52 -5.28 52 -8 52 C-8 36.82 -8 21.64 -8 6 C-5.36 6 -2.72 6 0 6 C0 4.02 0 2.04 0 0 Z M-4 10 C-4 12.64 -4 15.28 -4 18 C10.52 18 25.04 18 40 18 C40 15.36 40 12.72 40 10 C38.68 10 37.36 10 36 10 C36 11.32 36 12.64 36 14 C34.68 14 33.36 14 32 14 C32 12.68 32 11.36 32 10 C22.76 10 13.52 10 4 10 C4 11.32 4 12.64 4 14 C2.68 14 1.36 14 0 14 C0 12.68 0 11.36 0 10 C-1.32 10 -2.64 10 -4 10 Z M44 18 C44 20.64 44 23.28 44 26 C45.32 26 46.64 26 48 26 C48 23.36 48 20.72 48 18 C46.68 18 45.36 18 44 18 Z M-4 22 C-4 30.58 -4 39.16 -4 48 C10.52 48 25.04 48 40 48 C40 39.42 40 30.84 40 22 C25.48 22 10.96 22 -4 22 Z M44 30 C44 37.26 44 44.52 44 52 C30.8 52 17.6 52 4 52 C4 53.32 4 54.64 4 56 C18.52 56 33.04 56 48 56 C48 47.42 48 38.84 48 30 C46.68 30 45.36 30 44 30 Z " fill="#5BE8FA" transform="translate(10,2)"/>
<path d="M0 0 C1.98 0 3.96 0 6 0 C6 1.32 6 2.64 6 4 C4.02 4 2.04 4 0 4 C0 2.68 0 1.36 0 0 Z " fill="#5CE9FA" transform="translate(40,41)"/>
<path d="M0 0 C1.98 0 3.96 0 6 0 C6 1.32 6 2.64 6 4 C4.02 4 2.04 4 0 4 C0 2.68 0 1.36 0 0 Z " fill="#5CE9FA" transform="translate(30,41)"/>
<path d="M0 0 C1.98 0 3.96 0 6 0 C6 1.32 6 2.64 6 4 C4.02 4 2.04 4 0 4 C0 2.68 0 1.36 0 0 Z " fill="#5CE9FA" transform="translate(20,41)"/>
<path d="M0 0 C1.98 0 3.96 0 6 0 C6 1.32 6 2.64 6 4 C4.02 4 2.04 4 0 4 C0 2.68 0 1.36 0 0 Z " fill="#5CE9FA" transform="translate(10,41)"/>
<path d="M0 0 C1.98 0 3.96 0 6 0 C6 1.32 6 2.64 6 4 C4.02 4 2.04 4 0 4 C0 2.68 0 1.36 0 0 Z " fill="#5CE9FA" transform="translate(40,29)"/>
<path d="M0 0 C1.98 0 3.96 0 6 0 C6 1.32 6 2.64 6 4 C4.02 4 2.04 4 0 4 C0 2.68 0 1.36 0 0 Z " fill="#5CE9FA" transform="translate(30,29)"/>
<path d="M0 0 C1.98 0 3.96 0 6 0 C6 1.32 6 2.64 6 4 C4.02 4 2.04 4 0 4 C0 2.68 0 1.36 0 0 Z " fill="#5CE9FA" transform="translate(20,29)"/>
<path d="M0 0 C1.98 0 3.96 0 6 0 C6 1.32 6 2.64 6 4 C4.02 4 2.04 4 0 4 C0 2.68 0 1.36 0 0 Z " fill="#5CE9FA" transform="translate(10,29)"/>
</svg>
